<svg width="14" height="15" viewBox="0 0 14 15" fill="none" xmlns="http://www.w3.org/2000/svg">
<g clip-path="url(#clip0_1_199)">
<path d="M13.6544 0.8081C13.2855 0.70256 4.26244 -0.175704 1.09361 4.00973C-0.309832 5.86388 -0.330914 8.40562 1.02328 11.5638C0.679764 12.2609 0.379038 12.9951 0.133956 13.7699C0.0594447 14.0054 0.194222 14.255 0.434764 14.3276C0.479608 14.3412 0.525026 14.3476 0.569869 14.3476C0.764338 14.3476 0.944888 14.2248 1.00515 14.0335C3.42037 6.39968 11.2693 2.70652 13.6762 1.77354C13.9105 1.68268 14.2235 0.970953 13.6544 0.8081Z" fill="#84829A"/>
<path d="M2.47192 12.5191C3.77832 13.0549 5.08453 13.3295 6.29922 13.3295C7.39103 13.3295 8.40923 13.11 9.28663 12.665C11.0525 11.7694 12.1315 10.0564 12.4071 7.71058C12.6878 5.31983 13.0373 3.82234 13.3289 2.90625C10.7336 4.07664 5.16878 7.11039 2.47192 12.5191Z" fill="#84829A"/>
</g>
<defs>
<clipPath id="clip0_1_199">
<rect width="14" height="13.687" fill="white" transform="translate(0 0.660645)"/>
</clipPath>
</defs>
</svg>
