<svg width="16" height="17" viewBox="0 0 16 17" fill="none" xmlns="http://www.w3.org/2000/svg">
<path d="M0.266666 15.5965H1.86667V6.9932C1.86667 6.84923 1.98607 6.7325 2.13333 6.7325H5.86667V0.736291C5.86667 0.592316 5.98607 0.475586 6.13333 0.475586H13.0667C13.2139 0.475586 13.3333 0.592316 13.3333 0.736291V15.5965H15.7333C15.8806 15.5965 16 15.7132 16 15.8572C16 16.0011 15.8806 16.1179 15.7333 16.1179H0.266666C0.119399 16.1179 -8.34465e-07 16.0011 -8.34465e-07 15.8572C-8.34465e-07 15.7132 0.119399 15.5965 0.266666 15.5965ZM10.4 15.5965H11.4667V13.2501C11.4667 13.1061 11.3473 12.9894 11.2 12.9894H10.6667C10.5194 12.9894 10.4 13.1061 10.4 13.2501V15.5965ZM9.33333 6.9932V15.5965H9.86667V13.2501C9.86667 12.8182 10.2248 12.468 10.6667 12.468H11.2C11.6418 12.468 12 12.8182 12 13.2501V15.5965H12.8V0.996995H6.4V6.7325H9.06667C9.21393 6.7325 9.33333 6.84923 9.33333 6.9932ZM2.4 15.5965H8.8V7.25391H2.4V15.5965Z" fill="#84829A"/>
<path d="M7.46658 4.12549H9.06659C9.21385 4.12549 9.33325 4.24222 9.33325 4.38619V5.95042C9.33325 6.09439 9.21385 6.21113 9.06659 6.21113H7.46658C7.31932 6.21113 7.19992 6.09439 7.19992 5.95042V4.38619C7.19992 4.24222 7.31932 4.12549 7.46658 4.12549ZM7.73325 5.68972H8.79992V4.6469H7.73325V5.68972Z" fill="#84829A"/>
<path d="M7.46658 1.51831H9.06659C9.21385 1.51831 9.33325 1.63504 9.33325 1.77902V3.34324C9.33325 3.48722 9.21385 3.60395 9.06659 3.60395H7.46658C7.31932 3.60395 7.19992 3.48722 7.19992 3.34324V1.77902C7.19992 1.63504 7.31932 1.51831 7.46658 1.51831ZM7.73325 3.08254H8.79992V2.03972H7.73325V3.08254Z" fill="#84829A"/>
<path d="M10.1333 4.12549H11.7333C11.8806 4.12549 12 4.24222 12 4.38619V5.95042C12 6.09439 11.8806 6.21113 11.7333 6.21113H10.1333C9.98607 6.21113 9.86667 6.09439 9.86667 5.95042V4.38619C9.86667 4.24222 9.98607 4.12549 10.1333 4.12549ZM10.4 5.68972H11.4667V4.6469H10.4V5.68972Z" fill="#84829A"/>
<path d="M10.1333 1.51831H11.7333C11.8806 1.51831 12 1.63504 12 1.77902V3.34324C12 3.48722 11.8806 3.60395 11.7333 3.60395H10.1333C9.98607 3.60395 9.86667 3.48722 9.86667 3.34324V1.77902C9.86667 1.63504 9.98607 1.51831 10.1333 1.51831ZM10.4 3.08254H11.4667V2.03972H10.4V3.08254Z" fill="#84829A"/>
<path d="M10.1333 6.73242H11.7333C11.8806 6.73242 12 6.84915 12 6.99313V8.55735C12 8.70133 11.8806 8.81806 11.7333 8.81806H10.1333C9.98607 8.81806 9.86667 8.70133 9.86667 8.55735V6.99313C9.86667 6.84915 9.98607 6.73242 10.1333 6.73242ZM10.4 8.29665H11.4667V7.25383H10.4V8.29665Z" fill="#84829A"/>
<path d="M10.1333 9.3396H11.7333C11.8806 9.3396 12 9.45633 12 9.6003V11.1645C12 11.3085 11.8806 11.4252 11.7333 11.4252H10.1333C9.98607 11.4252 9.86667 11.3085 9.86667 11.1645V9.6003C9.86667 9.45633 9.98607 9.3396 10.1333 9.3396ZM10.4 10.9038H11.4667V9.86101H10.4V10.9038Z" fill="#84829A"/>
<path d="M5.06659 12.468H3.46659C3.31932 12.468 3.19992 12.3512 3.19992 12.2073V10.643C3.19992 10.4991 3.31932 10.3823 3.46659 10.3823H5.06659C5.21385 10.3823 5.33325 10.4991 5.33325 10.643V12.2073C5.33325 12.3512 5.21385 12.468 5.06659 12.468ZM4.79992 10.9037H3.73325V11.9466H4.79992V10.9037Z" fill="#84829A"/>
<path d="M5.06659 9.86078H3.46659C3.31932 9.86078 3.19992 9.74405 3.19992 9.60008V8.03585C3.19992 7.89188 3.31932 7.77515 3.46659 7.77515H5.06659C5.21385 7.77515 5.33325 7.89188 5.33325 8.03585V9.60008C5.33325 9.74405 5.21385 9.86078 5.06659 9.86078ZM4.79992 8.29656H3.73325V9.33937H4.79992V8.29656Z" fill="#84829A"/>
<path d="M5.06659 15.0751H3.46659C3.31932 15.0751 3.19992 14.9584 3.19992 14.8144V13.2502C3.19992 13.1062 3.31932 12.9895 3.46659 12.9895H5.06659C5.21385 12.9895 5.33325 13.1062 5.33325 13.2502V14.8144C5.33325 14.9584 5.21385 15.0751 5.06659 15.0751ZM4.79992 13.5109H3.73325V14.5537H4.79992V13.5109Z" fill="#84829A"/>
<path d="M7.73333 12.468H6.13333C5.98607 12.468 5.86667 12.3512 5.86667 12.2073V10.643C5.86667 10.4991 5.98607 10.3823 6.13333 10.3823H7.73333C7.8806 10.3823 8 10.4991 8 10.643V12.2073C8 12.3512 7.8806 12.468 7.73333 12.468ZM7.46667 10.9037H6.4V11.9466H7.46667V10.9037Z" fill="#84829A"/>
<path d="M7.73333 9.86078H6.13333C5.98607 9.86078 5.86667 9.74405 5.86667 9.60008V8.03585C5.86667 7.89188 5.98607 7.77515 6.13333 7.77515H7.73333C7.8806 7.77515 8 7.89188 8 8.03585V9.60008C8 9.74405 7.8806 9.86078 7.73333 9.86078ZM7.46667 8.29656H6.4V9.33937H7.46667V8.29656Z" fill="#84829A"/>
<path d="M7.73333 15.0751H6.13333C5.98607 15.0751 5.86667 14.9584 5.86667 14.8144V13.2502C5.86667 13.1062 5.98607 12.9895 6.13333 12.9895H7.73333C7.8806 12.9895 8 13.1062 8 13.2502V14.8144C8 14.9584 7.8806 15.0751 7.73333 15.0751ZM7.46667 13.5109H6.4V14.5537H7.46667V13.5109Z" fill="#84829A"/>
</svg>
