<svg width="20" height="19" viewBox="0 0 20 19" fill="none" xmlns="http://www.w3.org/2000/svg">
<path d="M18.3644 1.85301C17.33 0.765948 15.8804 0.147426 14.3617 0.145133C12.8417 0.146853 11.3906 0.765047 10.3546 1.85231L10.0015 2.2171L9.64836 1.85231C7.59251 -0.310876 4.13215 -0.435105 1.91953 1.57478C1.82148 1.66388 1.72679 1.75642 1.63565 1.85231C-0.545218 4.15206 -0.545218 7.7062 1.63565 10.0059L9.48255 18.096C9.75403 18.3762 10.2064 18.3882 10.493 18.1228C10.5024 18.1141 10.5115 18.1052 10.5204 18.096L18.3645 10.0059C20.5452 7.70645 20.5452 4.15251 18.3644 1.85301ZM17.3302 9.04369H17.3294L10.0015 16.5998L2.67282 9.04369C1.00676 7.28647 1.00676 4.57109 2.67282 2.81388C4.1858 1.2107 6.74172 1.11018 8.38156 2.58933C8.46118 2.66115 8.53778 2.73604 8.61124 2.81388L9.48255 3.71255C9.76969 3.99147 10.2333 3.99147 10.5204 3.71255L11.3917 2.81457C12.9047 1.21139 15.4606 1.11087 17.1005 2.59003C17.1801 2.66185 17.2567 2.73673 17.3302 2.81457C19.0107 4.57457 19.023 7.29491 17.3302 9.04369Z" fill="#4152CA"/>
</svg>
