<svg width="14" height="15" viewBox="0 0 14 15" fill="none" xmlns="http://www.w3.org/2000/svg">
<path d="M12.3433 1.87541L6.02577 8.07448C5.95335 8.03346 5.87719 7.99909 5.79827 7.97183L1.62744 6.59172C1.5013 6.56082 1.38935 6.4896 1.30935 6.38937C1.22936 6.28915 1.18591 6.16567 1.18591 6.03854C1.18591 5.91141 1.22936 5.78793 1.30935 5.68771C1.38935 5.58748 1.5013 5.51626 1.62744 5.48536L11.9758 1.88682C12.0434 1.86436 12.1143 1.85281 12.1858 1.8526C12.2392 1.85176 12.2924 1.85947 12.3433 1.87541V1.87541Z" fill="#84829A"/>
<path d="M12.7459 2.63956L9.06503 12.7679C9.02444 12.886 8.94545 12.9878 8.84012 13.0578C8.73478 13.1278 8.6089 13.1622 8.4817 13.1557C8.35303 13.1615 8.22602 13.1255 8.1205 13.0532C8.01498 12.981 7.93687 12.8767 7.89836 12.7565L6.51003 8.67894C6.48214 8.60179 6.44699 8.52733 6.40503 8.45653L12.7575 2.28027C12.7934 2.39813 12.7893 2.52416 12.7459 2.63956V2.63956Z" fill="#84829A"/>
</svg>
