<svg width="14" height="15" viewBox="0 0 14 15" fill="none" xmlns="http://www.w3.org/2000/svg">
<g clip-path="url(#clip0_1_213)">
<path d="M13.5009 0.683106C13.4232 0.683077 13.3466 0.70072 13.2771 0.73466L9.48821 2.58727L5.20378 0.72538C5.19678 0.722459 5.18878 0.721943 5.18128 0.719022C5.16201 0.711976 5.14229 0.706105 5.12228 0.701436C5.10239 0.696195 5.08217 0.692099 5.06178 0.689206C5.02118 0.685941 4.98037 0.685941 4.93979 0.689206C4.9194 0.692099 4.89919 0.696195 4.8793 0.701436C4.85929 0.706105 4.83957 0.711976 4.82029 0.719022C4.81279 0.721943 4.80479 0.72243 4.79779 0.72538L0.297862 2.68064C0.11722 2.75906 0.000825201 2.93418 0.000854498 3.12739V13.8813C0.000942387 14.0467 0.0865172 14.2008 0.228341 14.2909C0.370195 14.3812 0.549108 14.3952 0.703822 14.3281L5.00076 12.4608L9.29769 14.3281C9.30519 14.331 9.31319 14.3281 9.32069 14.3325C9.44174 14.3854 9.5807 14.3824 9.69917 14.3242C9.70717 14.3208 9.71616 14.3242 9.72416 14.3188L13.7241 12.3635C13.8936 12.2807 14.0007 12.1113 14.0006 11.926V1.17216C14.0008 0.902184 13.777 0.68322 13.5009 0.683106ZM4.50079 11.6083L1.00083 13.129V3.44514L4.50079 1.92442V11.6083ZM9.00072 13.129L5.50076 11.6083V1.92442L9.00072 3.44511V13.129ZM13.0006 11.624L10.0007 13.0904V3.42947L13.0006 1.96303V11.624V11.624Z" fill="#84829A"/>
</g>
<defs>
<clipPath id="clip0_1_213">
<rect width="14" height="13.687" fill="white" transform="translate(0 0.683105)"/>
</clipPath>
</defs>
</svg>
