<svg width="54" height="15" viewBox="0 0 54 15" fill="none" xmlns="http://www.w3.org/2000/svg">
<path d="M5.784 2.52379H2.976V3.61432H4.472C4.272 4.13621 3.784 4.45558 3.04 4.45558C1.952 4.45558 1.28 3.77789 1.28 2.85095C1.28 1.89284 1.984 1.21516 2.928 1.21516C3.56 1.21516 4.064 1.49558 4.296 1.85389L5.384 1.24632C4.912 0.514106 4.008 0 2.936 0C1.288 0 0 1.26189 0 2.84316C0 4.40884 1.264 5.67074 3.024 5.67074C4.592 5.67074 5.784 4.65811 5.784 2.99116V2.52379Z" fill="white"/>
<path d="M7.38562 4.36211V3.39621H9.38562V2.21221H7.38562V1.30863H9.58562V0.109053H6.10563V5.56168H9.62562V4.36211H7.38562Z" fill="white"/>
<path d="M13.7078 0.109053H9.54781V1.30863H10.9878V5.56168H12.2678V1.30863H13.7078V0.109053Z" fill="white"/>
<path d="M15.4681 0.109053V5.56168H16.7481V0.109053H15.4681Z" fill="white"/>
<path d="M21.0703 0.109053H16.9103V1.30863H18.3503V5.56168H19.6303V1.30863H21.0703V0.109053Z" fill="white"/>
<path d="M25.5026 5.67074C27.1106 5.67074 28.4146 4.44 28.4146 2.83537C28.4146 1.23074 27.1106 0 25.5026 0C23.8946 0 22.5906 1.23074 22.5906 2.83537C22.5906 4.44 23.8946 5.67074 25.5026 5.67074ZM25.5026 4.45558C24.5906 4.45558 23.8706 3.80905 23.8706 2.83537C23.8706 1.86168 24.5906 1.21516 25.5026 1.21516C26.4146 1.21516 27.1346 1.86168 27.1346 2.83537C27.1346 3.80905 26.4146 4.45558 25.5026 4.45558Z" fill="white"/>
<path d="M31.8553 0.109053V3.06905L29.6953 0.109053H28.7353V5.56168H30.0153V2.60168L32.1753 5.56168H33.1353V0.109053H31.8553Z" fill="white"/>
<path d="M5.784 11.7855V11.9958C5.784 12.6761 5.536 13.2499 5.04 13.7173C4.544 14.1794 3.89067 14.4105 3.08 14.4105C2.22667 14.4105 1.52267 14.1405 0.968 13.6004C0.413333 13.0552 0.136 12.3879 0.136 11.5985C0.136 10.8092 0.410667 10.1445 0.96 9.60442C1.50933 9.05916 2.20533 8.78653 3.048 8.78653C3.56 8.78653 4.02933 8.90596 4.456 9.14484C4.888 9.38372 5.22133 9.70309 5.456 10.1029L5.08 10.3211C4.89333 9.97832 4.616 9.70309 4.248 9.49537C3.88533 9.28765 3.48533 9.18379 3.048 9.18379C2.32267 9.18379 1.72533 9.41747 1.256 9.88484C0.792 10.347 0.56 10.9182 0.56 11.5985C0.56 12.2788 0.794667 12.8526 1.264 13.32C1.73333 13.7822 2.33867 14.0133 3.08 14.0133C3.736 14.0133 4.26667 13.8393 4.672 13.4914C5.07733 13.1434 5.304 12.7046 5.352 12.1749H2.976V11.7855H5.784Z" fill="white"/>
<path d="M11.4626 13.5926C10.9026 14.1379 10.22 14.4105 9.41463 14.4105C8.60929 14.4105 7.92662 14.1379 7.36662 13.5926C6.80662 13.0422 6.52663 12.3775 6.52663 11.5985C6.52663 10.8196 6.80662 10.1575 7.36662 9.61221C7.92662 9.06175 8.60929 8.78653 9.41463 8.78653C10.22 8.78653 10.9026 9.06175 11.4626 9.61221C12.0226 10.1575 12.3026 10.8196 12.3026 11.5985C12.3026 12.3775 12.0226 13.0422 11.4626 13.5926ZM7.66263 13.3122C8.14263 13.7796 8.72663 14.0133 9.41463 14.0133C10.1026 14.0133 10.684 13.7796 11.1586 13.3122C11.6386 12.8396 11.8786 12.2684 11.8786 11.5985C11.8786 10.9286 11.6386 10.36 11.1586 9.89263C10.684 9.42007 10.1026 9.18379 9.41463 9.18379C8.72663 9.18379 8.14263 9.42007 7.66263 9.89263C7.18796 10.36 6.95062 10.9286 6.95062 11.5985C6.95062 12.2684 7.18796 12.8396 7.66263 13.3122Z" fill="white"/>
<path d="M17.9939 13.5926C17.4339 14.1379 16.7512 14.4105 15.9459 14.4105C15.1405 14.4105 14.4579 14.1379 13.8979 13.5926C13.3379 13.0422 13.0579 12.3775 13.0579 11.5985C13.0579 10.8196 13.3379 10.1575 13.8979 9.61221C14.4579 9.06175 15.1405 8.78653 15.9459 8.78653C16.7512 8.78653 17.4339 9.06175 17.9939 9.61221C18.5539 10.1575 18.8339 10.8196 18.8339 11.5985C18.8339 12.3775 18.5539 13.0422 17.9939 13.5926ZM14.1939 13.3122C14.6739 13.7796 15.2579 14.0133 15.9459 14.0133C16.6339 14.0133 17.2152 13.7796 17.6899 13.3122C18.1699 12.8396 18.4099 12.2684 18.4099 11.5985C18.4099 10.9286 18.1699 10.36 17.6899 9.89263C17.2152 9.42007 16.6339 9.18379 15.9459 9.18379C15.2579 9.18379 14.6739 9.42007 14.1939 9.89263C13.7192 10.36 13.4819 10.9286 13.4819 11.5985C13.4819 12.2684 13.7192 12.8396 14.1939 13.3122Z" fill="white"/>
<path d="M25.2371 11.7855V11.9958C25.2371 12.6761 24.9891 13.2499 24.4931 13.7173C23.9971 14.1794 23.3438 14.4105 22.5331 14.4105C21.6798 14.4105 20.9758 14.1405 20.4211 13.6004C19.8665 13.0552 19.5891 12.3879 19.5891 11.5985C19.5891 10.8092 19.8638 10.1445 20.4131 9.60442C20.9625 9.05916 21.6585 8.78653 22.5011 8.78653C23.0131 8.78653 23.4825 8.90596 23.9091 9.14484C24.3411 9.38372 24.6745 9.70309 24.9091 10.1029L24.5331 10.3211C24.3465 9.97832 24.0691 9.70309 23.7011 9.49537C23.3385 9.28765 22.9385 9.18379 22.5011 9.18379C21.7758 9.18379 21.1785 9.41747 20.7091 9.88484C20.2451 10.347 20.0131 10.9182 20.0131 11.5985C20.0131 12.2788 20.2478 12.8526 20.7171 13.32C21.1865 13.7822 21.7918 14.0133 22.5331 14.0133C23.1891 14.0133 23.7198 13.8393 24.1251 13.4914C24.5305 13.1434 24.7571 12.7046 24.8051 12.1749H22.4291V11.7855H25.2371Z" fill="white"/>
<path d="M26.7237 13.9354H29.3638V14.3248H26.2997V8.87221H26.7237V13.9354Z" fill="white"/>
<path d="M30.6691 13.9354H33.4691V14.3248H30.2451V8.87221H33.4291V9.26168H30.6691V11.3804H33.2291V11.7699H30.6691V13.9354Z" fill="white"/>
<path d="M38.5475 8.87221C39.0488 8.87221 39.4648 9.03319 39.7955 9.35516C40.1262 9.67712 40.2915 10.0796 40.2915 10.5625C40.2915 11.0455 40.1262 11.4479 39.7955 11.7699C39.4648 12.0867 39.0488 12.2451 38.5475 12.2451H37.0675V14.3248H36.6435V8.87221H38.5475ZM38.5475 11.8556C38.9315 11.8556 39.2462 11.7335 39.4915 11.4895C39.7422 11.2454 39.8675 10.9364 39.8675 10.5625C39.8675 10.1834 39.7422 9.87186 39.4915 9.62779C39.2462 9.38372 38.9315 9.26168 38.5475 9.26168H37.0675V11.8556H38.5475Z" fill="white"/>
<path d="M41.7628 13.9354H44.4028V14.3248H41.3388V8.87221H41.7628V13.9354Z" fill="white"/>
<path d="M49.2084 14.3248L48.6644 12.9383H45.8564L45.3124 14.3248H44.8644L47.0404 8.87221H47.4884L49.6564 14.3248H49.2084ZM46.0164 12.5488H48.5124L47.2644 9.37853L46.0164 12.5488Z" fill="white"/>
<path d="M53.6409 8.87221L51.6009 12.0815V14.3248H51.1769V12.0815L49.1369 8.87221H49.6169L51.3929 11.6842L53.1609 8.87221H53.6409Z" fill="white"/>
</svg>
