<svg width="20" height="20" viewBox="0 0 20 20" fill="none" xmlns="http://www.w3.org/2000/svg">
<g clip-path="url(#clip0_2942_1462)">
<path d="M11.5075 9.73899L1.46393 19.1557C0.993605 18.8428 0.714365 18.3222 0.719303 17.7675V1.71045C0.714365 1.1558 0.993605 0.635231 1.46393 0.322266L11.5075 9.73899Z" fill="#2196F3"/>
<path d="M15.0217 6.44934L11.5074 9.73856L1.46387 0.321834C1.50171 0.293277 1.54113 0.26671 1.58191 0.242256C2.11272 -0.0709994 2.77574 -0.0811125 3.31639 0.21573L15.0217 6.44934Z" fill="#4CAF50"/>
<path d="M19.2806 9.73844C19.2872 10.3646 18.9377 10.9429 18.3725 11.2416L15.0217 13.0277L11.5073 9.73844L15.0217 6.44922L18.3725 8.23529C18.9377 8.53395 19.2872 9.1123 19.2806 9.73844Z" fill="#F0BB1F"/>
<path d="M15.0217 13.0275L3.31639 19.2611C2.77455 19.5534 2.11404 19.5432 1.58191 19.2346C1.54113 19.2101 1.50171 19.1836 1.46387 19.155L11.5074 9.73828L15.0217 13.0275Z" fill="#F15A2B"/>
</g>
<defs>
<clipPath id="clip0_2942_1462">
<rect width="20" height="19.4737" fill="white"/>
</clipPath>
</defs>
</svg>
