<svg width="14" height="16" viewBox="0 0 14 16" fill="none" xmlns="http://www.w3.org/2000/svg">
<path d="M4.35103 15.5777C1.96975 15.5643 0 10.8312 0 8.42077C0 4.48331 3.03359 3.6213 4.20272 3.6213C4.72959 3.6213 5.29219 3.82276 5.78841 4.00104C6.13541 4.12539 6.49428 4.25377 6.69388 4.25377C6.81334 4.25377 7.09488 4.14456 7.34344 4.04875C7.87353 3.84327 8.53316 3.58789 9.30128 3.58789C9.30266 3.58789 9.3045 3.58789 9.30584 3.58789C9.87941 3.58789 11.6185 3.71045 12.664 5.23926L12.9089 5.59761L12.5564 5.85657C12.0529 6.22651 11.1342 6.90134 11.1342 8.23805C11.1342 9.82123 12.1747 10.4301 12.6745 10.7229C12.8952 10.8522 13.1236 10.9855 13.1236 11.277C13.1236 11.4673 11.5635 15.554 9.29806 15.554C8.74372 15.554 8.35188 15.3918 8.00625 15.2487C7.65653 15.1039 7.35484 14.9791 6.85634 14.9791C6.60366 14.9791 6.28413 15.0954 5.94584 15.2189C5.48356 15.3869 4.96031 15.5777 4.36659 15.5777H4.35103Z" fill="white"/>
<path d="M9.5413 0C9.60031 2.07139 8.07889 3.50843 6.55926 3.4183C6.30886 1.76526 8.07871 0 9.5413 0Z" fill="white"/>
</svg>
