<svg width="55" height="17" viewBox="0 0 55 17" fill="none" xmlns="http://www.w3.org/2000/svg">
<path d="M3.03 4.26474H4.08L2.652 0.175263H1.428L0 4.26474H1.05L1.26 3.62211H2.82L3.03 4.26474ZM1.548 2.74579L2.04 1.24437L2.532 2.74579H1.548Z" fill="white"/>
<path d="M6.20494 1.34368L5.58094 3.19563L4.95694 1.34368H3.96094L5.07094 4.26474H6.09094L7.20094 1.34368H6.20494Z" fill="white"/>
<path d="M9.59198 1.34368V1.61826C9.39398 1.39626 9.09998 1.26189 8.69798 1.26189C7.91198 1.26189 7.26398 1.93374 7.26398 2.80421C7.26398 3.67468 7.91198 4.34653 8.69798 4.34653C9.09998 4.34653 9.39398 4.21216 9.59198 3.99016V4.26474H10.492V1.34368H9.59198ZM8.87799 3.51695C8.46398 3.51695 8.16398 3.24237 8.16398 2.80421C8.16398 2.36605 8.46398 2.09147 8.87799 2.09147C9.29199 2.09147 9.59198 2.36605 9.59198 2.80421C9.59198 3.24237 9.29199 3.51695 8.87799 3.51695Z" fill="white"/>
<path d="M11.1523 4.26474H12.0523V0H11.1523V4.26474Z" fill="white"/>
<path d="M13.1609 1.08663C13.4549 1.08663 13.7009 0.847105 13.7009 0.560842C13.7009 0.274579 13.4549 0.0350525 13.1609 0.0350525C12.8669 0.0350525 12.6209 0.274579 12.6209 0.560842C12.6209 0.847105 12.8669 1.08663 13.1609 1.08663ZM12.7109 4.26474H13.6109V1.34368H12.7109V4.26474Z" fill="white"/>
<path d="M16.0635 1.26189C15.6615 1.26189 15.3675 1.39626 15.1695 1.61826V0.175263H14.2695V4.26474H15.1695V3.99016C15.3675 4.21216 15.6615 4.34653 16.0635 4.34653C16.8495 4.34653 17.4975 3.67468 17.4975 2.80421C17.4975 1.93374 16.8495 1.26189 16.0635 1.26189ZM15.8835 3.51695C15.4695 3.51695 15.1695 3.24237 15.1695 2.80421C15.1695 2.36605 15.4695 2.09147 15.8835 2.09147C16.2975 2.09147 16.5975 2.36605 16.5975 2.80421C16.5975 3.24237 16.2975 3.51695 15.8835 3.51695Z" fill="white"/>
<path d="M18.0077 4.26474H18.9077V0H18.0077V4.26474Z" fill="white"/>
<path d="M20.3703 3.15474H22.5003C22.5243 3.04374 22.5363 2.92689 22.5363 2.80421C22.5363 1.92205 21.8883 1.26189 21.0123 1.26189C20.0643 1.26189 19.4163 1.93374 19.4163 2.80421C19.4163 3.67468 20.0523 4.34653 21.0783 4.34653C21.6483 4.34653 22.0923 4.14205 22.3863 3.74479L21.6663 3.34168C21.5463 3.47021 21.3363 3.56368 21.0903 3.56368C20.7603 3.56368 20.4843 3.45853 20.3703 3.15474ZM20.3523 2.50042C20.4363 2.20247 20.6643 2.03889 21.0063 2.03889C21.2763 2.03889 21.5463 2.16158 21.6423 2.50042H20.3523Z" fill="white"/>
<path d="M25.9868 4.34653C26.8688 4.34653 27.5768 3.67468 27.5768 2.80421C27.5768 1.93374 26.8688 1.26189 25.9868 1.26189C25.1048 1.26189 24.3968 1.93374 24.3968 2.80421C24.3968 3.67468 25.1048 4.34653 25.9868 4.34653ZM25.9868 3.49358C25.5968 3.49358 25.2968 3.219 25.2968 2.80421C25.2968 2.38942 25.5968 2.11484 25.9868 2.11484C26.3768 2.11484 26.6768 2.38942 26.6768 2.80421C26.6768 3.219 26.3768 3.49358 25.9868 3.49358Z" fill="white"/>
<path d="M29.8439 1.26189C29.4479 1.26189 29.1479 1.40211 28.9859 1.61826V1.34368H28.0859V4.26474H28.9859V2.66984C28.9859 2.25505 29.2139 2.06811 29.5439 2.06811C29.8319 2.06811 30.0659 2.23753 30.0659 2.59974V4.26474H30.9659V2.47121C30.9659 1.68253 30.4499 1.26189 29.8439 1.26189Z" fill="white"/>
<path d="M34.8419 2.18495V1.34368H34.2239V0.525789L33.3239 0.788684V1.34368H32.8439V2.18495H33.3239V3.219C33.3239 4.03689 33.6659 4.38158 34.8419 4.26474V3.47021C34.4459 3.49358 34.2239 3.47021 34.2239 3.219V2.18495H34.8419Z" fill="white"/>
<path d="M37.1095 1.26189C36.7135 1.26189 36.4135 1.40211 36.2515 1.61826V0.175263H35.3515V4.26474H36.2515V2.66984C36.2515 2.25505 36.4795 2.06811 36.8095 2.06811C37.0975 2.06811 37.3315 2.23753 37.3315 2.59974V4.26474H38.2315V2.47121C38.2315 1.68253 37.7155 1.26189 37.1095 1.26189Z" fill="white"/>
<path d="M39.6535 3.15474H41.7835C41.8075 3.04374 41.8195 2.92689 41.8195 2.80421C41.8195 1.92205 41.1715 1.26189 40.2955 1.26189C39.3475 1.26189 38.6995 1.93374 38.6995 2.80421C38.6995 3.67468 39.3355 4.34653 40.3615 4.34653C40.9315 4.34653 41.3755 4.14205 41.6695 3.74479L40.9495 3.34168C40.8295 3.47021 40.6195 3.56368 40.3735 3.56368C40.0435 3.56368 39.7675 3.45853 39.6535 3.15474ZM39.6355 2.50042C39.7195 2.20247 39.9475 2.03889 40.2895 2.03889C40.5595 2.03889 40.8295 2.16158 40.9255 2.50042H39.6355Z" fill="white"/>
<path d="M5.05 14.9753H6.8L4.42 8.15947H2.38L0 14.9753H1.75L2.1 13.9042H4.7L5.05 14.9753ZM2.58 12.4437L3.4 9.94132L4.22 12.4437H2.58Z" fill="white"/>
<path d="M10.3369 9.97053C9.66687 9.97053 9.17688 10.1945 8.84688 10.5645V10.1068H7.34688V16.9226H8.84688V14.5176C9.17688 14.8876 9.66687 15.1116 10.3369 15.1116C11.6469 15.1116 12.7269 13.9918 12.7269 12.5411C12.7269 11.0903 11.6469 9.97053 10.3369 9.97053ZM10.0369 13.7289C9.34688 13.7289 8.84688 13.2713 8.84688 12.5411C8.84688 11.8108 9.34688 11.3532 10.0369 11.3532C10.7269 11.3532 11.2269 11.8108 11.2269 12.5411C11.2269 13.2713 10.7269 13.7289 10.0369 13.7289Z" fill="white"/>
<path d="M16.5673 9.97053C15.8973 9.97053 15.4073 10.1945 15.0773 10.5645V10.1068H13.5773V16.9226H15.0773V14.5176C15.4073 14.8876 15.8973 15.1116 16.5673 15.1116C17.8773 15.1116 18.9573 13.9918 18.9573 12.5411C18.9573 11.0903 17.8773 9.97053 16.5673 9.97053ZM16.2673 13.7289C15.5773 13.7289 15.0773 13.2713 15.0773 12.5411C15.0773 11.8108 15.5773 11.3532 16.2673 11.3532C16.9573 11.3532 17.4573 11.8108 17.4573 12.5411C17.4573 13.2713 16.9573 13.7289 16.2673 13.7289Z" fill="white"/>
<path d="M19.8078 14.9753H21.3078V7.86737H19.8078V14.9753Z" fill="white"/>
<path d="M23.7455 13.1253H27.2955C27.3355 12.9403 27.3555 12.7455 27.3555 12.5411C27.3555 11.0708 26.2755 9.97053 24.8155 9.97053C23.2355 9.97053 22.1555 11.0903 22.1555 12.5411C22.1555 13.9918 23.2155 15.1116 24.9255 15.1116C25.8755 15.1116 26.6155 14.7708 27.1055 14.1087L25.9055 13.4368C25.7055 13.6511 25.3555 13.8068 24.9455 13.8068C24.3955 13.8068 23.9355 13.6316 23.7455 13.1253ZM23.7155 12.0347C23.8555 11.5382 24.2355 11.2655 24.8055 11.2655C25.2555 11.2655 25.7055 11.47 25.8655 12.0347H23.7155Z" fill="white"/>
<path d="M33.2062 15.1116C34.7262 15.1116 35.8063 14.3326 35.8063 13.0182C35.8063 11.5771 34.6163 11.2168 33.5563 10.9053C32.4663 10.5839 32.2962 10.3697 32.2962 10.0582C32.2962 9.78553 32.5462 9.54211 33.0462 9.54211C33.6862 9.54211 34.0162 9.84395 34.2562 10.3308L35.6063 9.56158C35.0963 8.55868 34.1962 8.02316 33.0462 8.02316C31.8362 8.02316 30.6963 8.78263 30.6963 10.0971C30.6963 11.4018 31.7162 11.8887 32.7562 12.1711C33.8062 12.4534 34.2062 12.6189 34.2062 13.0376C34.2062 13.3005 34.0162 13.5926 33.2562 13.5926C32.4662 13.5926 32.0362 13.2129 31.7862 12.6482L30.4062 13.4271C30.7963 14.43 31.7362 15.1116 33.2062 15.1116Z" fill="white"/>
<path d="M39.3394 11.5089V10.1068H38.3094V8.74368L36.8094 9.18184V10.1068H36.0094V11.5089H36.8094V13.2324C36.8094 14.5955 37.3794 15.17 39.3394 14.9753V13.6511C38.6794 13.69 38.3094 13.6511 38.3094 13.2324V11.5089H39.3394Z" fill="white"/>
<path d="M42.491 15.1116C43.961 15.1116 45.141 13.9918 45.141 12.5411C45.141 11.0903 43.961 9.97053 42.491 9.97053C41.021 9.97053 39.841 11.0903 39.841 12.5411C39.841 13.9918 41.021 15.1116 42.491 15.1116ZM42.491 13.69C41.841 13.69 41.341 13.2324 41.341 12.5411C41.341 11.8497 41.841 11.3921 42.491 11.3921C43.141 11.3921 43.641 11.8497 43.641 12.5411C43.641 13.2324 43.141 13.69 42.491 13.69Z" fill="white"/>
<path d="M47.4895 10.9734V10.1068H45.9895V14.9753H47.4895V12.7747C47.4895 11.8108 48.3695 11.5674 48.9895 11.6647V10.0095C48.3595 10.0095 47.6895 10.3211 47.4895 10.9734Z" fill="white"/>
<path d="M50.8841 13.1253H54.4341C54.4741 12.9403 54.4941 12.7455 54.4941 12.5411C54.4941 11.0708 53.4141 9.97053 51.9541 9.97053C50.3741 9.97053 49.2941 11.0903 49.2941 12.5411C49.2941 13.9918 50.3541 15.1116 52.0641 15.1116C53.0141 15.1116 53.7541 14.7708 54.2441 14.1087L53.0441 13.4368C52.8441 13.6511 52.4941 13.8068 52.0841 13.8068C51.5341 13.8068 51.0741 13.6316 50.8841 13.1253ZM50.8541 12.0347C50.9941 11.5382 51.3741 11.2655 51.9441 11.2655C52.3941 11.2655 52.8441 11.47 53.0041 12.0347H50.8541Z" fill="white"/>
</svg>
