<svg width="92" height="78" viewBox="0 0 92 78" fill="none" xmlns="http://www.w3.org/2000/svg">
<path d="M92 60C92 69.9411 83.9411 78 74 78L47 78C44.2386 78 42 75.7614 42 73L42 39C42 33.4772 46.4772 29 52 29L87 29C89.7614 29 92 31.2386 92 34L92 60Z" fill="#FFF1DA"/>
<path d="M23.6198 50.6574L21.7243 49.7535L10.4634 66.3382H23.0307L24.2417 65.5516V51.225L23.6198 50.6574Z" fill="#407093"/>
<path d="M21.8956 49.8353L17.6337 47.803H16.8305L4.77942 65.5516L5.49686 66.3382H10.6903L21.8956 49.8353Z" fill="#365E7D"/>
<path d="M26.5041 65.5515H9.88636C9.13144 65.5515 8.51941 66.161 8.51941 66.9131V68.6385C8.51941 69.3903 9.1313 69.9998 9.88608 69.9999H26.5041C27.2591 69.9999 27.8711 69.3904 27.8711 68.6385V66.9131C27.8711 66.161 27.2591 65.5515 26.5041 65.5515Z" fill="#4A80AA"/>
<path d="M8.80233 68.6385V66.9131C8.80233 66.1611 9.41436 65.5515 10.1693 65.5515H1.36695C0.612032 65.5515 0 66.161 0 66.9131V68.6385C0 69.3904 0.612032 69.9999 1.36695 69.9999H10.1691C9.41422 69.9999 8.80233 69.3904 8.80233 68.6385Z" fill="#407093"/>
<path d="M21.3234 39.9827C20.8119 41.0338 20.5228 42.2123 20.5228 43.459C20.5228 46.8659 22.6646 49.7721 25.679 50.9218C26.9732 50.5179 28.1232 49.7893 29.0316 48.8301V47.0893L21.3234 39.9827Z" fill="#4A80AA"/>
<path d="M20.6578 43.4863C20.6578 42.2684 20.9405 41.1173 21.4411 40.0909L18.9772 37.8192H17.9774C16.4655 39.2399 15.5204 41.2525 15.5204 43.4862C15.5204 47.7893 19.0224 51.2775 23.3424 51.2775C24.2423 51.2775 25.1052 51.1237 25.9095 50.8449C22.8525 49.7856 20.6578 46.8921 20.6578 43.4863Z" fill="#407093"/>
<path d="M66.0716 0.924695C64.8338 -0.308232 62.827 -0.308232 61.5893 0.924695L58.5646 3.93756V4.31941L62.3398 8.23954L63.0469 8.40223L66.0715 5.38937C67.3094 4.15658 67.3094 2.15762 66.0716 0.924695Z" fill="#FFD086"/>
<path d="M66.9078 2.41492C66.7757 1.86915 66.4993 1.35085 66.0716 0.924695C64.8338 -0.308232 62.827 -0.308232 61.5893 0.924695L58.5646 3.93756V4.31941L60.5662 6.3978C61.7595 5.16091 62.9443 3.94029 63.5536 3.3334C64.5693 2.32182 66.0528 2.31403 66.9078 2.41492Z" fill="#FFC365"/>
<path d="M55.7163 8.95026C55.6816 8.95026 55.6465 8.94848 55.6112 8.94507L20.6575 5.51808C20.0745 5.46094 19.6486 4.944 19.706 4.36336C19.7634 3.78272 20.2826 3.35875 20.8653 3.41549L55.819 6.84234C56.4018 6.89949 56.8278 7.41642 56.7705 7.99706C56.7165 8.5427 56.2552 8.95026 55.7163 8.95026Z" fill="#365E7D"/>
<path d="M30.7668 15.4681C30.2964 15.4681 29.8667 15.1539 29.7418 14.6795C29.5931 14.1151 29.932 13.5377 30.4985 13.3896L55.4465 6.87154C56.013 6.72374 56.5929 7.06103 56.7414 7.6254C56.8901 8.18964 56.5513 8.76714 55.9847 8.9152L31.0366 15.4333C30.9463 15.4568 30.8557 15.4681 30.7668 15.4681Z" fill="#407093"/>
<path d="M62.492 47.136C61.9527 47.136 61.4914 46.7281 61.4377 46.1823L58.0187 11.3445C57.9617 10.764 58.388 10.2472 58.9709 10.1903C59.5539 10.1362 60.0726 10.5584 60.1295 11.139L63.5486 45.9768C63.6056 46.5573 63.1793 47.0741 62.5963 47.131C62.5613 47.1342 62.5265 47.136 62.492 47.136Z" fill="#365E7D"/>
<path d="M52.4312 37.2475C52.3413 37.2475 52.2499 37.2359 52.1587 37.212C51.5925 37.0624 51.2553 36.4841 51.4055 35.9201L58.0456 10.9741C58.1956 10.41 58.7761 10.0746 59.3424 10.2236C59.9086 10.3732 60.2458 10.9515 60.0956 11.5155L53.4555 36.4615C53.3297 36.9348 52.9005 37.2475 52.4312 37.2475Z" fill="#407093"/>
<path d="M55.525 6.96429L58.5574 3.94376L63.0391 8.40782L60.0067 11.4284L55.525 6.96429Z" fill="#FFC365"/>
<path d="M57.8281 9.24573C58.5569 8.48557 59.695 7.29995 60.7958 6.15999L58.5647 3.9375L55.5317 6.95843L57.8281 9.24573Z" fill="#FFA90F"/>
<path d="M60.6893 13.1519C60.4179 13.1519 60.1464 13.0487 59.9394 12.8425L54.1069 7.03305C53.6927 6.62044 53.6927 5.95175 54.1069 5.53899C54.5211 5.12665 55.1925 5.12665 55.6068 5.53899L61.4392 11.3484C61.8535 11.761 61.8535 12.4297 61.4392 12.8425C61.2321 13.0488 60.9608 13.1519 60.6893 13.1519Z" fill="#4A80AA"/>
<path d="M61.3738 49.0376L25.8635 13.36C21.1555 23.9466 20.338 35.3114 23.8625 45.1115C33.5963 53.8573 48.1367 55.2003 61.5226 49.7026L61.3738 49.0376Z" fill="#B5DCFF"/>
<path d="M26.0525 13.55L17.9166 5.37573L17.1013 5.45585C11.3691 19.3031 13.0428 34.3917 22.7577 44.0684C23.3461 44.6545 23.955 45.2107 24.5818 45.7383C20.4866 35.9498 21.1522 24.3077 26.0525 13.55Z" fill="#8BCAFF"/>
<path d="M64.6189 46.5017L28.6039 10.6282C28.2495 10.6826 27.9082 10.8431 27.6354 11.1149L26.0688 12.6754C25.7324 13.0105 25.5651 13.4481 25.5603 13.8874L61.4611 49.647C61.9949 50.1787 62.8603 50.1787 63.3941 49.647L64.619 48.4271C65.1527 47.8955 65.1527 47.0334 64.6189 46.5017Z" fill="#DBEDFF"/>
<path d="M26.1229 12.7021L27.6567 11.1743C27.9392 10.8929 28.2959 10.7318 28.6641 10.6882L20.315 2.37192C19.7812 1.84022 18.9158 1.84022 18.3818 2.37192L17.1569 3.59199C16.6231 4.12369 16.6231 4.9857 17.1569 5.5174L25.6234 13.9506C25.6123 13.5 25.7777 13.0459 26.1229 12.7021Z" fill="#B5DCFF"/>
</svg>
