<svg width="22" height="23" viewBox="0 0 22 23" fill="none" xmlns="http://www.w3.org/2000/svg">
<path d="M0.544608 5.08466C0.248039 5.08466 0.00539195 4.84743 -2.08616e-07 4.5575V1.24166C-2.08616e-07 0.946451 0.242647 0.709229 0.544608 0.709229H3.93627C4.23284 0.709229 4.47549 0.946451 4.47549 1.24166V2.39614H17.5245V1.24166C17.5245 0.951722 17.7672 0.7145 18.0637 0.709229H21.4554C21.752 0.709229 21.9946 0.946451 22 1.24166V4.5575C22 4.84743 21.7574 5.08466 21.4554 5.08466H20.2745V17.8419H21.4554C21.752 17.8419 21.9946 18.0792 22 18.3691V21.6849C22 21.9749 21.7574 22.2121 21.4554 22.2174H18.0637C17.7672 22.2174 17.5245 21.9801 17.5245 21.6849V20.5304H4.47549V21.6849C4.47549 21.9749 4.23284 22.2121 3.93627 22.2174H0.544608C0.248039 22.2174 0.00539195 21.9801 -2.08616e-07 21.6849V18.3691C-2.08616e-07 18.0792 0.242647 17.8419 0.544608 17.8419H1.72549V5.08466H0.544608ZM20.9216 4.03034V1.76355H18.6029V4.03034H20.9216ZM18.6029 21.163H20.9216V18.8963H18.6029V21.163ZM4.47549 18.3691V19.4761H17.5245V18.3691C17.5245 18.0792 17.7672 17.8419 18.0637 17.8419H19.1961V5.08466H18.0637C17.7672 5.08466 17.5245 4.84743 17.5245 4.5575V3.45046H4.47549V4.5575C4.47549 4.84743 4.23284 5.08466 3.93627 5.08466H2.80392V17.8419H3.93627C4.23284 17.8419 4.47549 18.0792 4.47549 18.3691ZM1.07843 18.8963V21.163H3.39706V18.8963H1.07843ZM3.39706 4.03034V1.76355H1.07843V4.03034H3.39706Z" fill="white"/>
</svg>
