<svg width="24" height="19" viewBox="0 0 24 19" fill="none" xmlns="http://www.w3.org/2000/svg">
<path d="M4.5 10.9048C4.20333 10.9048 3.91332 10.9908 3.66665 11.1519C3.41997 11.3131 3.22771 11.5421 3.11418 11.8101C3.00065 12.078 2.97094 12.3729 3.02882 12.6573C3.0867 12.9418 3.22956 13.2031 3.43934 13.4082C3.64912 13.6133 3.91639 13.753 4.20737 13.8095C4.49834 13.8661 4.79994 13.8371 5.07403 13.7261C5.34812 13.6151 5.58238 13.4271 5.74721 13.186C5.91203 12.9448 6 12.6613 6 12.3713C6 11.9823 5.84197 11.6093 5.56066 11.3343C5.27936 11.0593 4.89783 10.9048 4.5 10.9048ZM4.5 13.1045C4.35167 13.1045 4.20666 13.0615 4.08332 12.9809C3.95999 12.9003 3.86386 12.7858 3.80709 12.6518C3.75033 12.5179 3.73547 12.3704 3.76441 12.2282C3.79335 12.086 3.86478 11.9553 3.96967 11.8528C4.07456 11.7502 4.2082 11.6804 4.35368 11.6521C4.49917 11.6238 4.64997 11.6383 4.78701 11.6938C4.92406 11.7493 5.04119 11.8433 5.1236 11.9639C5.20601 12.0845 5.25 12.2262 5.25 12.3713C5.25 12.5657 5.17098 12.7522 5.03033 12.8897C4.88968 13.0272 4.69891 13.1045 4.5 13.1045Z" fill="white"/>
<path d="M19.5 10.9048C19.2033 10.9048 18.9133 10.9908 18.6666 11.1519C18.42 11.3131 18.2277 11.5421 18.1142 11.8101C18.0006 12.078 17.9709 12.3729 18.0288 12.6573C18.0867 12.9418 18.2296 13.2031 18.4393 13.4082C18.6491 13.6133 18.9164 13.753 19.2074 13.8095C19.4983 13.8661 19.7999 13.8371 20.074 13.7261C20.3481 13.6151 20.5824 13.4271 20.7472 13.186C20.912 12.9448 21 12.6613 21 12.3713C21 11.9823 20.842 11.6093 20.5607 11.3343C20.2793 11.0593 19.8978 10.9048 19.5 10.9048ZM19.5 13.1045C19.3517 13.1045 19.2067 13.0615 19.0833 12.9809C18.96 12.9003 18.8639 12.7858 18.8071 12.6518C18.7503 12.5179 18.7355 12.3704 18.7644 12.2282C18.7933 12.086 18.8648 11.9553 18.9697 11.8528C19.0746 11.7502 19.2082 11.6804 19.3537 11.6521C19.4992 11.6238 19.65 11.6383 19.787 11.6938C19.9241 11.7493 20.0412 11.8433 20.1236 11.9639C20.206 12.0845 20.25 12.2262 20.25 12.3713C20.25 12.5657 20.171 12.7522 20.0303 12.8897C19.8897 13.0272 19.6989 13.1045 19.5 13.1045Z" fill="white"/>
<path d="M8.625 12.7378H15.375V13.471H8.625V12.7378Z" fill="white"/>
<path d="M8.625 11.2712H15.375V12.0045H8.625V11.2712Z" fill="white"/>
<path d="M10.875 5.77222H13.125V6.50545H10.875V5.77222Z" fill="white"/>
<path d="M23.25 9.07157V8.33834C23.2491 8.04691 23.1303 7.76766 22.9195 7.56159C22.7087 7.35552 22.4231 7.23936 22.125 7.23849H20.64L19.8638 4.57686L19.6312 3.67132C19.5702 3.43355 19.4297 3.22252 19.232 3.07174C19.0343 2.92097 18.7907 2.83909 18.54 2.8391H15.375V1.37264C15.3744 1.17835 15.2952 0.992186 15.1547 0.854804C15.0142 0.717422 14.8237 0.639985 14.625 0.639404H9.375C9.17627 0.639985 8.98585 0.717422 8.84533 0.854804C8.7048 0.992186 8.62559 1.17835 8.625 1.37264V2.8391H5.46C5.20926 2.83909 4.96569 2.92097 4.76799 3.07174C4.57028 3.22252 4.42976 3.43355 4.36875 3.67132L4.14 4.57319L3.36 7.23849H1.875C1.57691 7.23936 1.29127 7.35552 1.08049 7.56159C0.869703 7.76766 0.75089 8.04691 0.75 8.33834V9.07157C0.750607 9.25729 0.79944 9.43983 0.891922 9.60206C0.984403 9.76429 1.1175 9.90091 1.27875 9.99911C0.93975 10.3396 0.750047 10.7961 0.75 11.2713V15.6707C0.750517 15.8245 0.784179 15.9764 0.848792 16.1167C0.913405 16.2569 1.00752 16.3822 1.125 16.4845V17.8703C1.12589 18.1618 1.2447 18.441 1.45549 18.6471C1.66627 18.8532 1.95191 18.9693 2.25 18.9702H5.25C5.54809 18.9693 5.83373 18.8532 6.04451 18.6471C6.2553 18.441 6.37411 18.1618 6.375 17.8703V16.7705H17.625V17.8703C17.6259 18.1618 17.7447 18.441 17.9555 18.6471C18.1663 18.8532 18.4519 18.9693 18.75 18.9702H21.75C22.0481 18.9693 22.3337 18.8532 22.5445 18.6471C22.7553 18.441 22.8741 18.1618 22.875 17.8703V16.4845C22.9925 16.3822 23.0866 16.2569 23.1512 16.1167C23.2158 15.9764 23.2495 15.8245 23.25 15.6707V11.2713C23.25 10.7961 23.0602 10.3396 22.7213 9.99911C22.8825 9.90091 23.0156 9.76429 23.1081 9.60206C23.2006 9.43983 23.2494 9.25729 23.25 9.07157V9.07157ZM9.375 1.37264H14.625V2.8391H9.375V1.37264ZM5.09625 3.85096C5.11635 3.77148 5.16309 3.70086 5.22901 3.65036C5.29493 3.59986 5.37625 3.57239 5.46 3.57233H18.54C18.6237 3.57239 18.7051 3.59986 18.771 3.65036C18.8369 3.70086 18.8837 3.77148 18.9037 3.85096L19.02 4.30556H4.98L5.09625 3.85096ZM4.78125 5.03879H19.2188L20.5012 9.43818H9.71625C9.62811 8.92584 9.35712 8.46061 8.95138 8.12509C8.54565 7.78956 8.03142 7.60546 7.5 7.60546C6.96858 7.60546 6.45435 7.78956 6.04862 8.12509C5.64288 8.46061 5.37189 8.92584 5.28375 9.43818H3.49875L4.78125 5.03879ZM8.9475 9.43818H6.0525C6.13438 9.1236 6.32114 8.84466 6.58327 8.64543C6.84541 8.4462 7.16797 8.33804 7.5 8.33804C7.83203 8.33804 8.15459 8.4462 8.41673 8.64543C8.67886 8.84466 8.86562 9.1236 8.9475 9.43818V9.43818ZM1.5 8.33834C1.5 8.2411 1.53951 8.14785 1.60984 8.0791C1.68016 8.01035 1.77554 7.97172 1.875 7.97172H3.14625L2.71875 9.43818H1.875C1.77554 9.43818 1.68016 9.39956 1.60984 9.33081C1.53951 9.26205 1.5 9.1688 1.5 9.07157V8.33834ZM5.625 17.8703C5.625 17.9676 5.58549 18.0608 5.51516 18.1296C5.44484 18.1983 5.34946 18.237 5.25 18.237H2.25C2.15054 18.237 2.05516 18.1983 1.98484 18.1296C1.91451 18.0608 1.875 17.9676 1.875 17.8703V16.7705H5.625V17.8703ZM22.125 17.8703C22.125 17.9676 22.0855 18.0608 22.0152 18.1296C21.9448 18.1983 21.8495 18.237 21.75 18.237H18.75C18.6505 18.237 18.5552 18.1983 18.4848 18.1296C18.4145 18.0608 18.375 17.9676 18.375 17.8703V16.7705H22.125V17.8703ZM22.5 15.6707C22.5 15.7679 22.4605 15.8611 22.3902 15.9299C22.3198 15.9986 22.2245 16.0373 22.125 16.0373H1.875C1.77554 16.0373 1.68016 15.9986 1.60984 15.9299C1.53951 15.8611 1.5 15.7679 1.5 15.6707V15.304H22.5V15.6707ZM22.5 14.5708H1.5V11.2713C1.50089 10.9798 1.6197 10.7006 1.83049 10.4945C2.04127 10.2884 2.32691 10.1723 2.625 10.1714H21.375C21.6731 10.1723 21.9587 10.2884 22.1695 10.4945C22.3803 10.7006 22.4991 10.9798 22.5 11.2713V14.5708ZM22.5 9.07157C22.5 9.1688 22.4605 9.26205 22.3902 9.33081C22.3198 9.39956 22.2245 9.43818 22.125 9.43818H21.2812L20.8538 7.97172H22.125C22.2245 7.97172 22.3198 8.01035 22.3902 8.0791C22.4605 8.14785 22.5 8.2411 22.5 8.33834V9.07157Z" fill="white"/>
</svg>
