<svg width="23" height="18" viewBox="0 0 23 18" fill="none" xmlns="http://www.w3.org/2000/svg">
<path d="M19.8454 17.9931C19.3952 18.0021 18.953 17.8762 18.5782 17.6322C18.2992 17.454 17.9732 17.3591 17.64 17.3591C17.3067 17.3591 16.9807 17.454 16.7017 17.6322C16.3231 17.8679 15.8835 17.9931 15.4347 17.9931C14.9859 17.9931 14.5463 17.8679 14.1677 17.6322C13.8888 17.4538 13.5626 17.3588 13.2293 17.3588C12.896 17.3588 12.5698 17.4538 12.2909 17.6322C11.9123 17.8679 11.4727 17.9931 11.0239 17.9931C10.5751 17.9931 10.1355 17.8679 9.75692 17.6322C9.47815 17.454 9.15226 17.359 8.81914 17.359C8.48602 17.359 8.16013 17.454 7.88135 17.6322C7.53808 17.8553 7.13748 17.9792 6.72546 17.9899L6.70276 17.3558C7.0071 17.3487 7.30264 17.2545 7.55281 17.085C7.93133 16.8494 8.37074 16.7242 8.81946 16.7242C9.26818 16.7242 9.70759 16.8494 10.0861 17.085C10.3651 17.2633 10.6911 17.3582 11.0244 17.3582C11.3577 17.3582 11.6837 17.2633 11.9627 17.085C12.3413 16.8491 12.781 16.7239 13.2299 16.7239C13.6789 16.7239 14.1186 16.8491 14.4972 17.085C14.7762 17.2633 15.1022 17.3582 15.4355 17.3582C15.7688 17.3582 16.0948 17.2633 16.3738 17.085C16.7524 16.8494 17.1919 16.7243 17.6408 16.7243C18.0896 16.7243 18.5291 16.8494 18.9077 17.085C19.1874 17.2637 19.5142 17.3589 19.8483 17.3589C20.1824 17.3589 20.5092 17.2637 20.7888 17.085C21.1632 16.8418 21.6046 16.7161 22.054 16.7248V17.3589C21.7194 17.35 21.3906 17.4456 21.1154 17.6319C20.7397 17.8762 20.2965 18.0022 19.8454 17.9931V17.9931Z" fill="white"/>
<path d="M2.2054 17.993C1.75534 18.002 1.31323 17.8761 0.938594 17.6321C0.66347 17.4457 0.334649 17.3499 0 17.3588V16.7247C0.45017 16.7155 0.892396 16.8414 1.26713 17.0855C1.54211 17.272 1.87085 17.3678 2.2054 17.3588C2.54011 17.3678 2.86899 17.2719 3.144 17.0852C3.51794 16.8413 3.95944 16.7154 4.40886 16.7247C4.8474 16.715 5.27867 16.8352 5.64616 17.0693L5.31892 17.6166C5.05049 17.44 4.73229 17.3498 4.40886 17.3588C4.07554 17.35 3.74805 17.4456 3.47416 17.6315C3.09909 17.8762 2.65621 18.0024 2.2054 17.993V17.993Z" fill="white"/>
<path d="M19.8464 15.7729C19.3959 15.7819 18.9534 15.656 18.5783 15.4121C18.2991 15.2337 17.9727 15.1387 17.6392 15.1387C17.3056 15.1387 16.9793 15.2337 16.7001 15.4121C16.3215 15.6477 15.8821 15.7728 15.4333 15.7728C14.9845 15.7728 14.5451 15.6477 14.1665 15.4121C13.8877 15.2338 13.5617 15.1389 13.2285 15.1389C12.8954 15.1389 12.5694 15.2338 12.2906 15.4121C11.912 15.6478 11.4726 15.7729 11.0238 15.7729C10.575 15.7729 10.1355 15.6478 9.75697 15.4121C9.47814 15.2338 9.15219 15.1389 8.81903 15.1389C8.48586 15.1389 8.15992 15.2338 7.88108 15.4121C7.50646 15.6561 7.06434 15.7821 6.61427 15.7729C6.1642 15.7821 5.72208 15.6561 5.34746 15.4121C5.07259 15.2256 4.74396 15.1299 4.40951 15.1388C4.07517 15.1299 3.74667 15.2257 3.47189 15.4121C3.09786 15.6559 2.65645 15.7818 2.20703 15.7729C1.75686 15.7821 1.31463 15.6561 0.939892 15.4121C0.664467 15.2252 0.335107 15.1295 0 15.1388V14.5046C0.450063 14.4955 0.892172 14.6215 1.26681 14.8655C1.54194 15.0519 1.87076 15.1477 2.20541 15.1388C2.53975 15.1477 2.86825 15.0519 3.14303 14.8655C3.51706 14.6217 3.95847 14.4958 4.40789 14.5046C4.85829 14.4953 5.30079 14.6212 5.67568 14.8655C5.95065 15.052 6.27939 15.1478 6.61395 15.1388C6.9485 15.1478 7.27724 15.052 7.55222 14.8655C7.93076 14.6298 8.37023 14.5046 8.81903 14.5046C9.26782 14.5046 9.7073 14.6298 10.0858 14.8655C10.3647 15.0438 10.6907 15.1387 11.0239 15.1387C11.3572 15.1387 11.6832 15.0438 11.9621 14.8655C12.3406 14.6298 12.7801 14.5046 13.2289 14.5046C13.6777 14.5046 14.1171 14.6298 14.4957 14.8655C14.7746 15.0438 15.1006 15.1387 15.4338 15.1387C15.767 15.1387 16.093 15.0438 16.3719 14.8655C16.7508 14.6299 17.1906 14.5047 17.6397 14.5047C18.0888 14.5047 18.5285 14.6299 18.9075 14.8655C19.1868 15.0437 19.5133 15.1386 19.8469 15.1386C20.1805 15.1386 20.5069 15.0437 20.7863 14.8655C21.1613 14.6216 21.6037 14.4957 22.0541 14.5046V15.1388C21.7188 15.1295 21.3892 15.2253 21.1135 15.4121C20.7386 15.6558 20.2965 15.7817 19.8464 15.7729V15.7729Z" fill="white"/>
<path d="M19.8454 13.5538C19.3953 13.5628 18.9531 13.4369 18.5783 13.193C18.3031 13.0065 17.9743 12.9107 17.6397 12.9196C17.3941 12.9114 17.1502 12.9626 16.9297 13.0687L16.6437 12.4979C16.9533 12.3496 17.295 12.2764 17.6397 12.2846C18.0904 12.2756 18.5331 12.4018 18.9081 12.6463C19.1877 12.825 19.5146 12.9202 19.8487 12.9202C20.1827 12.9202 20.5096 12.825 20.7892 12.6463C21.1634 12.403 21.6047 12.2771 22.0541 12.2855V12.9196C21.7195 12.9107 21.3906 13.0063 21.1155 13.1926C20.7397 13.4369 20.2965 13.5629 19.8454 13.5538Z" fill="white"/>
<path d="M15.4314 13.5537C14.9819 13.5629 14.5404 13.4371 14.1665 13.1932C13.8875 13.0148 13.5614 12.9198 13.2281 12.9198C12.8947 12.9198 12.5686 13.0148 12.2896 13.1932C11.911 13.4288 11.4715 13.554 11.0226 13.554C10.5738 13.554 10.1343 13.4288 9.75568 13.1932C9.47673 13.0149 9.15068 12.9199 8.81741 12.9199C8.48413 12.9199 8.15809 13.0149 7.87914 13.1932C7.50457 13.4368 7.06276 13.5626 6.61297 13.5537C6.16291 13.5628 5.7208 13.4368 5.34616 13.1928C5.07104 13.0064 4.74222 12.9106 4.40757 12.9195C4.07424 12.9107 3.74676 13.0063 3.47287 13.1922C3.09816 13.4367 2.65577 13.5628 2.20541 13.5537C1.75534 13.5628 1.31323 13.4368 0.938595 13.1928C0.66347 13.0064 0.334649 12.9106 0 12.9195V12.2854C0.45017 12.2762 0.892396 12.4022 1.26714 12.6462C1.54211 12.8327 1.87085 12.9285 2.20541 12.9195C2.54011 12.9285 2.86899 12.8326 3.144 12.6459C3.51794 12.402 3.95944 12.2762 4.40887 12.2854C4.85893 12.2763 5.30103 12.4022 5.67568 12.6462C5.95065 12.8327 6.27939 12.9285 6.61395 12.9195C6.9486 12.9284 7.27742 12.8327 7.55254 12.6462C7.93116 12.4106 8.37068 12.2854 8.81951 12.2854C9.26835 12.2854 9.70787 12.4106 10.0865 12.6462C10.3654 12.8245 10.6915 12.9194 11.0248 12.9194C11.358 12.9194 11.6841 12.8245 11.963 12.6462C12.3417 12.4104 12.7813 12.2851 13.2303 12.2851C13.6793 12.2851 14.1189 12.4104 14.4976 12.6462C14.7834 12.8341 15.1222 12.9296 15.4664 12.9192C15.4914 12.9195 15.5164 12.9183 15.5413 12.9154L15.6276 13.5438C15.5625 13.5513 15.4969 13.5546 15.4314 13.5537V13.5537Z" fill="white"/>
<path d="M19.8464 11.334C19.3959 11.343 18.9534 11.217 18.5783 10.9731C18.2991 10.7947 17.9727 10.6998 17.6392 10.6998C17.3056 10.6998 16.9793 10.7947 16.7001 10.9731C16.3215 11.2087 15.8821 11.3339 15.4333 11.3339C14.9845 11.3339 14.5451 11.2087 14.1665 10.9731C13.8877 10.7949 13.5617 10.6999 13.2285 10.6999C12.8954 10.6999 12.5694 10.7949 12.2906 10.9731C11.912 11.2088 11.4726 11.334 11.0238 11.334C10.575 11.334 10.1355 11.2088 9.75697 10.9731C9.47814 10.7949 9.15219 10.6999 8.81903 10.6999C8.48586 10.6999 8.15992 10.7949 7.88108 10.9731C7.50646 11.2172 7.06434 11.3431 6.61427 11.334C6.1642 11.3431 5.72208 11.2172 5.34746 10.9731C5.07259 10.7867 4.74396 10.6909 4.40951 10.6998C4.07517 10.6909 3.74667 10.7867 3.47189 10.9731C3.09786 11.2169 2.65645 11.3428 2.20703 11.334C1.75686 11.3431 1.31463 11.2172 0.939892 10.9731C0.664467 10.7863 0.335107 10.6905 0 10.6998V10.0657C0.450063 10.0566 0.892172 10.1825 1.26681 10.4265C1.54194 10.613 1.87076 10.7087 2.20541 10.6998C2.53975 10.7087 2.86825 10.6129 3.14303 10.4265C3.51706 10.1827 3.95847 10.0568 4.40789 10.0657C4.85829 10.0563 5.30079 10.1823 5.67568 10.4265C5.95065 10.613 6.27939 10.7088 6.61395 10.6998C6.9485 10.7088 7.27724 10.613 7.55222 10.4265C7.93076 10.1908 8.37023 10.0656 8.81903 10.0656C9.26782 10.0656 9.7073 10.1908 10.0858 10.4265C10.3647 10.6048 10.6907 10.6998 11.0239 10.6998C11.3572 10.6998 11.6832 10.6048 11.9621 10.4265C12.3406 10.1908 12.7801 10.0656 13.2289 10.0656C13.6777 10.0656 14.1171 10.1908 14.4957 10.4265C14.7746 10.6048 15.1006 10.6998 15.4338 10.6998C15.767 10.6998 16.093 10.6048 16.3719 10.4265C16.7508 10.1909 17.1906 10.0657 17.6397 10.0657C18.0888 10.0657 18.5285 10.1909 18.9075 10.4265C19.1868 10.6047 19.5133 10.6997 19.8469 10.6997C20.1805 10.6997 20.5069 10.6047 20.7863 10.4265C21.1613 10.1827 21.6037 10.0567 22.0541 10.0657V10.6998C21.7188 10.6905 21.3892 10.7863 21.1135 10.9731C20.7386 11.2169 20.2965 11.3428 19.8464 11.334V11.334Z" fill="white"/>
<path d="M15.2248 11.0651L14.6128 10.8552C14.7704 10.4125 14.8348 9.94313 14.8021 9.47544C14.7694 9.00776 14.6402 8.55137 14.4224 8.13375L12.1946 3.8688C12.1726 3.82668 12.1606 3.78028 12.1593 3.73301C12.158 3.68574 12.1675 3.63878 12.1872 3.59558C12.2069 3.55239 12.2362 3.51404 12.273 3.48335C12.3098 3.45267 12.3532 3.43042 12.3999 3.41823L16.8396 2.26092C16.9843 2.22393 17.1082 2.13258 17.1843 2.00675C17.2604 1.88092 17.2827 1.73078 17.2462 1.58901C17.2097 1.44723 17.1174 1.32529 16.9893 1.2497C16.8613 1.17412 16.708 1.15101 16.5626 1.18541L11.1892 2.44102C11.0744 2.46755 10.9673 2.51959 10.8763 2.59309C10.7853 2.66659 10.7128 2.75958 10.6645 2.86486C10.6162 2.97014 10.5933 3.08488 10.5976 3.2002C10.6019 3.31551 10.6334 3.42831 10.6894 3.52985L12.2851 6.42789C12.3256 6.50155 12.3347 6.58785 12.3104 6.66802C12.2861 6.74819 12.2304 6.81573 12.1554 6.85594L10.0959 7.9657L9.78296 7.41019L11.5609 6.45199L10.119 3.83043C10.0158 3.64328 9.95806 3.43545 9.95019 3.223C9.94232 3.01055 9.98454 2.79918 10.0736 2.60523C10.1626 2.41128 10.2961 2.23994 10.4637 2.10448C10.6312 1.96901 10.8285 1.87304 11.04 1.82399L16.4109 0.568699C16.7235 0.49146 17.0548 0.538814 17.3317 0.700345C17.6087 0.861875 17.8087 1.12435 17.8877 1.43003C17.9667 1.73571 17.9182 2.05955 17.753 2.33031C17.5878 2.60108 17.3193 2.79658 17.0066 2.87382L12.9545 3.92967L15.0004 7.84489C15.258 8.33911 15.4107 8.87916 15.4492 9.43256C15.4878 9.98597 15.4115 10.5413 15.2248 11.0651V11.0651Z" fill="white"/>
<path d="M8.64927 8.02598L4.70801 10.1492L5.0209 10.7043L8.96215 8.58111L8.64927 8.02598Z" fill="white"/>
<path d="M18.1622 8.95605C17.6811 8.95605 17.2108 8.81658 16.8108 8.55527C16.4108 8.29397 16.099 7.92257 15.9149 7.48804C15.7308 7.05351 15.6826 6.57536 15.7765 6.11407C15.8703 5.65277 16.102 5.22904 16.4422 4.89647C16.7824 4.56389 17.2158 4.3374 17.6876 4.24565C18.1595 4.15389 18.6485 4.20098 19.093 4.38097C19.5375 4.56096 19.9174 4.86576 20.1847 5.25683C20.4519 5.64789 20.5946 6.10767 20.5946 6.578C20.5939 7.20849 20.3374 7.81297 19.8814 8.25879C19.4254 8.70462 18.8071 8.95537 18.1622 8.95605V8.95605ZM18.1622 4.8341C17.8094 4.8341 17.4645 4.93638 17.1712 5.128C16.8778 5.31962 16.6492 5.59198 16.5142 5.91064C16.3792 6.22929 16.3438 6.57993 16.4127 6.91822C16.4815 7.2565 16.6514 7.56723 16.9008 7.81112C17.1503 8.05501 17.4681 8.2211 17.8142 8.28839C18.1602 8.35568 18.5188 8.32115 18.8448 8.18915C19.1707 8.05716 19.4493 7.83364 19.6453 7.54686C19.8413 7.26008 19.9459 6.92291 19.9459 6.578C19.9453 6.11567 19.7572 5.67244 19.4228 5.34552C19.0884 5.01861 18.6351 4.83469 18.1622 4.8341V4.8341Z" fill="white"/>
</svg>
